<svg aria-hidden="true" style="position: absolute; width: 0; height: 0; overflow: hidden;" version="1.1" xmlns="http://www.w3.org/2000/svg" xmlns:xlink="http://www.w3.org/1999/xlink">
<defs>
<symbol id="icon-api" viewBox="0 0 32 32">
<path d="M13.96 1.28c-0.607 0-1.14 0.424-1.26 1.020l-0.28 1.42c-1.985 0.576-3.795 1.617-5.28 3.040l-1.36-0.46c-0.577-0.193-1.216 0.054-1.52 0.58l-2.020 3.52c-0.303 0.527-0.196 1.2 0.26 1.6l1.080 0.96c-0.25 1.016-0.38 2.032-0.38 3.040 0 1.006 0.129 2.022 0.38 3.040l-1.080 0.96c-0.456 0.401-0.563 1.073-0.26 1.6l2.020 3.52c0.303 0.527 0.943 0.776 1.52 0.58l1.36-0.46c1.486 1.424 3.297 2.464 5.28 3.040l0.28 1.42c0.121 0.595 0.653 1.020 1.26 1.020h4.080c0.608 0 1.14-0.424 1.26-1.020l0.28-1.42c1.984-0.575 3.795-1.616 5.28-3.040l1.36 0.46c0.577 0.196 1.196-0.054 1.5-0.58l2.040-3.52c0.304-0.527 0.197-1.199-0.26-1.6l-1.080-0.96c0.251-1.016 0.38-2.033 0.38-3.040s-0.129-2.024-0.38-3.040l1.080-0.96c0.456-0.401 0.564-1.073 0.26-1.6l-2.020-3.52c-0.305-0.528-0.946-0.775-1.52-0.58l-1.36 0.46c-1.485-1.423-3.296-2.464-5.28-3.040l-0.28-1.42c-0.121-0.596-0.653-1.020-1.26-1.020h-4.080zM10.56 11.52c0.281 0 0.537 0.191 0.62 0.46l2.24 7.28c0.019 0.061 0.020 0.136 0.020 0.2v0.38c0 0.354-0.287 0.64-0.64 0.64s-0.64-0.286-0.64-0.64v-0.3l-0.3-0.98h-2.6l-0.3 0.98v0.3c0 0.354-0.287 0.64-0.64 0.64s-0.64-0.286-0.64-0.64v-0.38c0-0.064 0.001-0.139 0.020-0.2l2.24-7.28c0.083-0.269 0.339-0.46 0.62-0.46zM15.36 11.52h2.56c1.059 0 1.92 0.861 1.92 1.92v1.92c0 1.059-0.861 1.92-1.92 1.92h-1.92v2.56c0 0.354-0.287 0.64-0.64 0.64s-0.64-0.286-0.64-0.64v-7.68c0-0.353 0.287-0.64 0.64-0.64zM21.76 11.52h1.28c0.354 0 0.64 0.287 0.64 0.64s-0.286 0.64-0.64 0.64v6.4c0.354 0 0.64 0.286 0.64 0.64s-0.286 0.64-0.64 0.64h-1.28c-0.354 0-0.64-0.286-0.64-0.64s0.286-0.64 0.64-0.64v-6.4c-0.354 0-0.64-0.287-0.64-0.64s0.286-0.64 0.64-0.64zM16 12.8v3.2h1.92c0.353 0 0.64-0.287 0.64-0.64v-1.92c0-0.353-0.287-0.64-0.64-0.64h-1.92zM10.56 14.34l-0.9 2.94h1.8l-0.9-2.94z"></path>
</symbol>
<symbol id="icon-circle" viewBox="0 0 32 32">
<path d="M32 16c0 8.837-7.163 16-16 16s-16-7.163-16-16c0-8.837 7.163-16 16-16s16 7.163 16 16z"></path>
</symbol>
<symbol id="icon-css" viewBox="0 0 32 32">
<path fill="#1572b6" style="fill: var(--color1, #1572b6)" d="M5.902 27.201l-2.246-25.201h24.688l-2.249 25.197-10.11 2.803-10.083-2.799z"></path>
<path fill="#33a9dc" style="fill: var(--color2, #33a9dc)" d="M16 27.858l8.17-2.265 1.922-21.532h-10.092v23.797z"></path>
<path fill="#fff" style="fill: var(--color3, #fff)" d="M16 13.191h4.090l0.282-3.165h-4.372v-3.091h7.75l-0.074 0.829-0.759 8.518h-6.917v-3.091z"></path>
<path fill="#ebebeb" style="fill: var(--color4, #ebebeb)" d="M16.019 21.218l-0.014 0.004-3.442-0.93-0.22-2.465h-3.103l0.433 4.853 6.331 1.758 0.015-0.004v-3.216z"></path>
<path fill="#fff" style="fill: var(--color3, #fff)" d="M19.827 16.151l-0.372 4.139-3.447 0.93v3.216l6.336-1.756 0.047-0.522 0.537-6.007h-3.101z"></path>
<path fill="#ebebeb" style="fill: var(--color4, #ebebeb)" d="M16.011 6.935v3.091h-7.466l-0.062-0.695-0.141-1.567-0.074-0.829h7.743z"></path>
<path fill="#ebebeb" style="fill: var(--color4, #ebebeb)" d="M16 13.191v3.091h-3.399l-0.062-0.695-0.14-1.567-0.074-0.829h3.675z"></path>
</symbol>
<symbol id="icon-email" viewBox="0 0 32 32">
<path fill="#d80027" style="fill: var(--color5, #d80027)" d="M26.928 16.216v0l-7.415 7.003 10.537 8.78v-18.732z"></path>
<path fill="#ff5023" style="fill: var(--color6, #ff5023)" d="M1.951 13.268v18.732l10.537-8.78z"></path>
<path fill="#d80027" style="fill: var(--color5, #d80027)" d="M12.488 23.22l-10.537 8.78h14.049v-5.463z"></path>
<path fill="#a2001d" style="fill: var(--color7, #a2001d)" d="M16 26.537v5.463h14.049l-10.537-8.78z"></path>
<path fill="#ff5023" style="fill: var(--color6, #ff5023)" d="M5.073 10.32l-3.121 2.948h3.121z"></path>
<path fill="#ff5023" style="fill: var(--color6, #ff5023)" d="M30.049 13.268l-3.122-2.948 0 2.948z"></path>
<path fill="#ff5023" style="fill: var(--color6, #ff5023)" d="M16 0l-4.979 4.702 9.944-0.012z"></path>
<path fill="#a2001d" style="fill: var(--color7, #a2001d)" d="M26.928 16.216l3.121-2.948h-3.121z"></path>
<path fill="#a2001d" style="fill: var(--color7, #a2001d)" d="M16 26.537l-10.928-10.321 0-2.947h-3.121l10.537 9.951z"></path>
<path fill="#dedde0" style="fill: var(--color8, #dedde0)" d="M5.072 16.216l10.928 10.321 10.928-10.32-0-2.948-0-2.948-0-5.637-21.854 0.026-0.001 5.611-0 2.948-0 2.947zM8.976 14.049h14.049v2.341h-14.049v-2.341zM8.976 11.707v-2.341h14.049v2.341h-14.049z"></path>
<path fill="#fff" style="fill: var(--color3, #fff)" d="M8.976 9.366h14.049v2.341h-14.049v-2.341z"></path>
<path fill="#fff" style="fill: var(--color3, #fff)" d="M8.976 14.049h14.049v2.341h-14.049v-2.341z"></path>
</symbol>
<symbol id="icon-figma" viewBox="0 0 32 32">
<path fill="#e64a19" style="fill: var(--color9, #e64a19)" d="M17.333 11.333h-5.333c-2.577 0-4.667-2.089-4.667-4.667v0c0-2.577 2.089-4.667 4.667-4.667h5.333v9.333z"></path>
<path fill="#7c4dff" style="fill: var(--color10, #7c4dff)" d="M16.667 20.667h-4.667c-2.577 0-4.667-2.089-4.667-4.667v0c0-2.577 2.089-4.667 4.667-4.667h4.667v9.333z"></path>
<path fill="#66bb6a" style="fill: var(--color11, #66bb6a)" d="M12 30v0c-2.577 0-4.667-2.089-4.667-4.667v0c0-2.577 2.089-4.667 4.667-4.667h4.667v4.667c0 2.577-2.089 4.667-4.667 4.667z"></path>
<path fill="#ff7043" style="fill: var(--color12, #ff7043)" d="M21.333 11.333h-4.667v-9.333h4.667c2.577 0 4.667 2.089 4.667 4.667v0c0 2.577-2.089 4.667-4.667 4.667z"></path>
<path fill="#29b6f6" style="fill: var(--color13, #29b6f6)" d="M26 16c0 2.577-2.089 4.667-4.667 4.667s-4.667-2.089-4.667-4.667c0-2.577 2.089-4.667 4.667-4.667s4.667 2.089 4.667 4.667z"></path>
</symbol>
<symbol id="icon-git" viewBox="0 0 32 32">
<path fill="#f4511e" style="fill: var(--color14, #f4511e)" d="M28.133 14.733l-10.867-10.867c-0.333-0.333-0.8-0.533-1.267-0.533 0 0 0 0 0 0-0.467 0-0.933 0.2-1.267 0.533l-2.333 2.333 2.733 2.733c0.267-0.133 0.533-0.2 0.867-0.2 1.133 0 2 0.867 2 2 0 0.333-0.067 0.6-0.2 0.867l2.667 2.667c0.267-0.133 0.533-0.2 0.867-0.2 1.133 0 2 0.867 2 2s-0.867 2-2 2c-1.133 0-2-0.867-2-2 0-0.333 0.067-0.6 0.2-0.867l-2.667-2.667c-0.067 0-0.133 0.067-0.2 0.067v6.933c0.8 0.267 1.333 1 1.333 1.867 0 1.133-0.867 2-2 2s-2-0.867-2-2c0-0.867 0.533-1.6 1.333-1.867v-7c-0.8-0.267-1.333-1-1.333-1.867 0-0.333 0.067-0.6 0.2-0.867l-2.733-2.733-7.6 7.667c-0.333 0.333-0.533 0.8-0.533 1.267s0.2 0.933 0.533 1.267l10.867 10.867c0 0 0 0 0 0 0.333 0.333 0.8 0.533 1.267 0.533s0.933-0.2 1.267-0.533l10.867-10.867c0.333-0.333 0.533-0.8 0.533-1.267s-0.2-0.933-0.533-1.267z"></path>
</symbol>
<symbol id="icon-graphql" viewBox="0 0 32 32">
<path fill="#ff4081" style="fill: var(--color15, #ff4081)" d="M16.333 30.107l-11.667-6.894v-13.76l11.667-6.894 11.667 6.894v13.76l-11.667 6.894zM6 22.453l10.333 6.106 10.333-6.106v-12.24l-10.333-6.106-10.333 6.106v12.24z"></path>
<path fill="#ff4081" style="fill: var(--color15, #ff4081)" d="M18.667 3.667c0 1.289-1.045 2.333-2.333 2.333s-2.333-1.045-2.333-2.333c0-1.289 1.045-2.333 2.333-2.333s2.333 1.045 2.333 2.333z"></path>
<path fill="#ff4081" style="fill: var(--color15, #ff4081)" d="M18.667 29c0 1.289-1.045 2.333-2.333 2.333s-2.333-1.045-2.333-2.333c0-1.289 1.045-2.333 2.333-2.333s2.333 1.045 2.333 2.333z"></path>
<path fill="#ff4081" style="fill: var(--color15, #ff4081)" d="M8 22.333c0 1.289-1.045 2.333-2.333 2.333s-2.333-1.045-2.333-2.333c0-1.289 1.045-2.333 2.333-2.333s2.333 1.045 2.333 2.333z"></path>
<path fill="#ff4081" style="fill: var(--color15, #ff4081)" d="M29.333 22.333c0 1.289-1.045 2.333-2.333 2.333s-2.333-1.045-2.333-2.333c0-1.289 1.045-2.333 2.333-2.333s2.333 1.045 2.333 2.333z"></path>
<path fill="#ff4081" style="fill: var(--color15, #ff4081)" d="M8 10.333c0 1.289-1.045 2.333-2.333 2.333s-2.333-1.045-2.333-2.333c0-1.289 1.045-2.333 2.333-2.333s2.333 1.045 2.333 2.333z"></path>
<path fill="#ff4081" style="fill: var(--color15, #ff4081)" d="M29.333 10.333c0 1.289-1.045 2.333-2.333 2.333s-2.333-1.045-2.333-2.333c0-1.289 1.045-2.333 2.333-2.333s2.333 1.045 2.333 2.333z"></path>
<path fill="#ff4081" style="fill: var(--color15, #ff4081)" d="M28.48 23.333h-24.293l12.147-21.348 12.147 21.348zM6.48 22h19.707l-9.853-17.319-9.853 17.319z"></path>
</symbol>
<symbol id="icon-html" viewBox="0 0 32 32">
<path fill="#e65100" style="fill: var(--color16, #e65100)" d="M27.333 3.333h-22.667l2 22.667 9.333 2.667 9.333-2.667 2-22.667z"></path>
<path fill="#ff6d00" style="fill: var(--color17, #ff6d00)" d="M16 5.333v21.267l7.467-2.133 1.667-19.133z"></path>
<path fill="#fff" style="fill: var(--color3, #fff)" d="M16 16.667v-2.667h5.733l-0.467 7.667-5.267 1.733v-2.8l2.733-0.933 0.2-3h-2.933zM21.933 11.333l0.2-2.667h-6.133v2.667h5.933z"></path>
<path fill="#eee" style="fill: var(--color18, #eee)" d="M16 20.6v2.8l-5.267-1.733-0.267-3.667h2.667l0.133 1.667 2.733 0.933zM12.733 11.333h3.267v-2.667h-6.067l0.467 8h5.6v-2.667h-3.067l-0.2-2.667z"></path>
</symbol>
<symbol id="icon-javascript" viewBox="0 0 32 32">
<path fill="#ffd600" style="fill: var(--color19, #ffd600)" d="M4 28v-24h24v24h-24z"></path>
<path fill="#000001" style="fill: var(--color20, #000001)" d="M19.692 21.965c0.461 0.749 0.963 1.467 2.025 1.467 0.892 0 1.36-0.443 1.36-1.057 0-0.734-0.484-0.995-1.465-1.422l-0.538-0.229c-1.553-0.659-2.585-1.484-2.585-3.227 0-1.607 1.23-2.829 3.152-2.829 1.369 0 2.352 0.474 3.061 1.715l-1.676 1.071c-0.369-0.659-0.767-0.918-1.385-0.918-0.631 0-1.030 0.398-1.030 0.918 0 0.643 0.4 0.903 1.323 1.301l0.538 0.229c1.83 0.779 2.862 1.575 2.862 3.365 0 1.928-1.523 2.985-3.567 2.985-1.999 0-3.135-1.003-3.767-2.245l1.692-1.123zM11.968 22.019c0.337 0.604 0.85 1.069 1.587 1.069 0.705 0 1.111-0.279 1.111-1.362v-7.059h2.222v7.401c0 2.245-1.302 3.266-3.203 3.266-1.718 0-2.958-1.164-3.463-2.245l1.746-1.069z"></path>
</symbol>
<symbol id="icon-mui" viewBox="0 0 32 32">
<path fill="#29b6f6" style="fill: var(--color13, #29b6f6)" d="M0.667 3.333l4 2.667v13.333l-4-2.667z"></path>
<path fill="#0288d1" style="fill: var(--color21, #0288d1)" d="M31.333 13.333l-4 2.667v8.667l4-2.667z"></path>
<path fill="#0288d1" style="fill: var(--color21, #0288d1)" d="M31.333 4l-4 2.667v4.667l4-2.667z"></path>
<path fill="#0288d1" style="fill: var(--color21, #0288d1)" d="M23.333 3.333l-4 2.667v13.333l4-2.667z"></path>
<path fill="#29b6f6" style="fill: var(--color13, #29b6f6)" d="M0.667 8l11.333 7.333v-4.667l-11.333-7.333z"></path>
<path fill="#0288d1" style="fill: var(--color21, #0288d1)" d="M23.333 8l-11.333 7.333v-4.667l11.333-7.333z"></path>
<path fill="#0288d1" style="fill: var(--color21, #0288d1)" d="M23.333 17.333l-11.333 7.333v-4.667l11.333-7.333z"></path>
<path fill="#0288d1" style="fill: var(--color21, #0288d1)" d="M31.333 22.667l-11.333 7.333v-4.667l11.333-7.333z"></path>
<path fill="#29b6f6" style="fill: var(--color13, #29b6f6)" d="M20 25.177l-8-5.177v4.667l8 5.177z"></path>
</symbol>
<symbol id="icon-node" viewBox="0 0 32 32">
<path fill="#21a366" style="fill: var(--color22, #21a366)" d="M16.005 30.279c-0.383 0-0.762-0.1-1.097-0.293l-3.493-2.069c-0.522-0.292-0.267-0.395-0.095-0.455 0.696-0.243 0.837-0.299 1.579-0.721 0.078-0.045 0.18-0.029 0.26 0.019l2.684 1.593c0.097 0.053 0.235 0.053 0.324 0l10.465-6.041c0.097-0.055 0.16-0.167 0.16-0.283v-12.075c0-0.121-0.063-0.228-0.162-0.288l-10.46-6.036c-0.097-0.057-0.225-0.057-0.322 0l-10.459 6.035c-0.101 0.057-0.166 0.17-0.166 0.285v12.076c0 0.115 0.063 0.225 0.163 0.28l2.866 1.655c1.556 0.778 2.507-0.139 2.507-1.061v-11.918c0-0.17 0.133-0.301 0.304-0.301h1.325c0.165 0 0.301 0.131 0.301 0.301v11.924c0 2.075-1.131 3.267-3.099 3.267-0.605 0-1.082 0-2.413-0.655l-2.745-1.582c-0.679-0.393-1.098-1.127-1.098-1.91v-12.076c0-0.786 0.419-1.519 1.097-1.907l10.476-6.043c0.663-0.375 1.543-0.375 2.201 0l10.463 6.046c0.675 0.39 1.097 1.121 1.097 1.907v12.076c0 0.783-0.422 1.514-1.097 1.907l-10.463 6.043c-0.335 0.194-0.715 0.293-1.103 0.293z"></path>
<path fill="#21a366" style="fill: var(--color22, #21a366)" d="M19.237 21.958c-4.579 0-5.539-2.102-5.539-3.865 0-0.167 0.135-0.301 0.303-0.301h1.352c0.149 0 0.275 0.109 0.299 0.256 0.204 1.377 0.812 2.072 3.581 2.072 2.205 0 3.143-0.498 3.143-1.668 0-0.673-0.267-1.173-3.693-1.509-2.866-0.283-4.637-0.914-4.637-3.206 0-2.111 1.781-3.369 4.765-3.369 3.351 0 5.011 1.163 5.221 3.662 0.008 0.087-0.023 0.17-0.081 0.233-0.057 0.060-0.139 0.097-0.223 0.097h-1.359c-0.141 0-0.265-0.099-0.293-0.236-0.327-1.449-1.119-1.912-3.269-1.912-2.407 0-2.687 0.838-2.687 1.467 0 0.762 0.33 0.985 3.578 1.415 3.217 0.427 4.744 1.029 4.744 3.29 0 2.279-1.902 3.586-5.218 3.586z"></path>
</symbol>
<symbol id="icon-python" viewBox="0 0 32 32">
<path fill="#0277bd" style="fill: var(--color23, #0277bd)" d="M16.031 3.333c-1.037 0.003-1.755 0.095-2.624 0.245-2.565 0.447-3.033 1.385-3.033 3.113v2.642h6v1.333h-9.128c-1.757 0-3.295 0.828-3.783 2.813-0.551 2.278-0.575 3.705 0 6.083 0.437 1.774 1.399 3.104 3.157 3.104h2.421v-3.403c0-1.977 1.791-3.931 3.843-3.931h4.824c1.682 0 3.333-1.241 3.333-2.918v-5.724c0-1.626-1.173-2.842-2.812-3.115 0.041-0.004-1.171-0.247-2.199-0.243zM12.709 6c0.547 0 1 0.451 1 1.001 0 0.555-0.453 0.999-1 0.999-0.558 0-1-0.443-1-0.999 0-0.548 0.442-1.001 1-1.001z"></path>
<path fill="#ffc107" style="fill: var(--color24, #ffc107)" d="M15.385 28.667c1.037-0.003 1.755-0.095 2.624-0.245 2.565-0.447 3.033-1.385 3.033-3.113v-2.642h-6v-1.333h9.129c1.757 0 3.295-0.828 3.783-2.813 0.551-2.278 0.575-3.705 0-6.083-0.437-1.774-1.399-3.104-3.157-3.104h-2.421v3.403c0 1.977-1.791 3.931-3.843 3.931h-4.824c-1.682 0-3.333 1.241-3.333 2.918v5.724c0 1.626 1.173 2.842 2.812 3.115-0.041 0.004 1.171 0.247 2.199 0.243zM18.709 26c-0.547 0-1-0.451-1-1.001 0-0.555 0.453-0.999 1-0.999 0.558 0 1 0.443 1 0.999 0 0.548-0.443 1.001-1 1.001z"></path>
</symbol>
<symbol id="icon-react" viewBox="0 0 32 32">
<path fill="#80deea" style="fill: var(--color25, #80deea)" d="M16 22.667c-8.6 0-15.333-2.933-15.333-6.667s6.733-6.667 15.333-6.667c8.6 0 15.333 2.933 15.333 6.667s-6.733 6.667-15.333 6.667zM16 10.667c-8.4 0-14 2.733-14 5.333s5.6 5.333 14 5.333 14-2.733 14-5.333c0-2.6-5.6-5.333-14-5.333z"></path>
<path fill="#80deea" style="fill: var(--color25, #80deea)" d="M10.067 29.733c-0.667 0-1.2-0.133-1.733-0.467-3.267-1.867-2.4-9.133 1.867-16.6v0c2-3.467 4.467-6.4 6.867-8.267 2.6-2 4.933-2.6 6.533-1.667 1.667 0.933 2.267 3.267 1.867 6.533-0.4 3.067-1.733 6.667-3.733 10.133s-4.467 6.4-6.867 8.267c-1.733 1.333-3.4 2.067-4.8 2.067zM21.933 3.6c-1.067 0-2.467 0.6-4 1.8-2.267 1.8-4.6 4.6-6.533 7.933v0c-4.2 7.267-4.6 13.533-2.4 14.8 1.133 0.667 3 0.067 5.067-1.533 2.267-1.8 4.6-4.6 6.533-7.933s3.2-6.733 3.6-9.6c0.333-2.667-0.067-4.533-1.2-5.2-0.333-0.133-0.667-0.267-1.067-0.267z"></path>
<path fill="#80deea" style="fill: var(--color25, #80deea)" d="M22 29.733c-3.333 0-8.133-4.067-11.733-10.4-4.333-7.467-5.2-14.733-1.933-16.6v0c3.267-1.867 9.133 2.467 13.467 9.933 2 3.467 3.333 7.067 3.733 10.133 0.467 3.267-0.2 5.533-1.867 6.533-0.533 0.267-1.067 0.4-1.667 0.4zM9 3.867c-2.2 1.267-1.8 7.533 2.4 14.8s9.4 10.733 11.6 9.467c1.133-0.667 1.533-2.533 1.2-5.2-0.4-2.867-1.667-6.267-3.6-9.6-4.2-7.267-9.4-10.733-11.6-9.467v0z"></path>
<path fill="#80deea" style="fill: var(--color25, #80deea)" d="M18.667 16c0 1.473-1.194 2.667-2.667 2.667s-2.667-1.194-2.667-2.667c0-1.473 1.194-2.667 2.667-2.667s2.667 1.194 2.667 2.667z"></path>
</symbol>
<symbol id="icon-redux" viewBox="0 0 32 32">
<path fill="#7e57c2" style="fill: var(--color26, #7e57c2)" d="M15.333 2.667c-4.411 0-8 4.847-8 10.803 0 3.223 1.055 6.113 2.719 8.091-0.032 0.142-0.052 0.288-0.052 0.439 0 1.105 0.895 2 2 2s2-0.895 2-2-0.895-2-2-2c-0.21 0-0.408 0.041-0.598 0.101-1.265-1.614-2.069-3.985-2.069-6.631 0-4.854 2.691-8.803 6-8.803 2.558 0 4.741 2.365 5.603 5.679 0.748 0.231 1.491 0.521 2.22 0.872-0.77-4.879-3.983-8.551-7.823-8.551z"></path>
<path fill="#7e57c2" style="fill: var(--color26, #7e57c2)" d="M23.671 13.389c-2.631-1.595-5.583-2.295-8.121-1.973-0.367-0.454-0.921-0.75-1.55-0.75-1.105 0-2 0.895-2 2s0.895 2 2 2c0.848 0 1.569-0.53 1.859-1.275 2.079-0.253 4.541 0.354 6.775 1.709 4.269 2.587 6.447 7.046 4.855 9.941-0.551 1.003-1.524 1.715-2.812 2.060-1.524 0.407-3.338 0.263-5.151-0.352-0.559 0.515-1.166 0.999-1.817 1.445 1.701 0.745 3.464 1.136 5.113 1.136 0.827 0 1.625-0.098 2.373-0.298 1.827-0.489 3.227-1.536 4.047-3.028 2.102-3.821-0.397-9.48-5.571-12.615z"></path>
<path fill="#7e57c2" style="fill: var(--color26, #7e57c2)" d="M23.333 19.328c0-1.101-0.895-1.995-2-1.995s-2 0.893-2 1.995c0 0.446 0.152 0.854 0.4 1.186-0.853 1.868-2.496 3.711-4.708 5.052-2.577 1.563-5.457 2.135-7.703 1.535-1.288-0.345-2.261-1.057-2.812-2.060-1.135-2.063-0.347-4.917 1.74-7.325-0.215-0.763-0.375-1.56-0.471-2.383-3.38 3.198-4.739 7.549-3.021 10.673 0.82 1.492 2.22 2.539 4.047 3.028 0.747 0.2 1.545 0.298 2.373 0.298 2.231 0 4.671-0.712 6.884-2.053 2.557-1.55 4.455-3.718 5.473-5.975 1.009-0.102 1.799-0.942 1.799-1.975z"></path>
</symbol>
<symbol id="icon-sass" viewBox="0 0 32 32">
<path fill="#f06292" style="fill: var(--color27, #f06292)" d="M16.028 2.688c7.349 0 13.305 5.957 13.305 13.305s-5.957 13.305-13.305 13.305c-7.348 0-13.305-5.957-13.305-13.305s5.957-13.305 13.305-13.305v0z"></path>
<path fill="#fff" style="fill: var(--color3, #fff)" d="M24.374 8.383c-0.603-2.363-4.521-3.14-8.229-1.823-2.207 0.784-4.596 2.015-6.314 3.621-2.043 1.911-2.368 3.573-2.234 4.268 0.473 2.451 3.833 4.054 5.213 5.243v0.007c-0.407 0.201-3.387 1.709-4.085 3.251-0.736 1.627 0.117 2.794 0.682 2.951 1.75 0.487 3.545-0.389 4.511-1.828 0.931-1.389 0.854-3.183 0.449-4.075 0.558-0.147 1.209-0.213 2.036-0.117 2.334 0.273 2.792 1.73 2.704 2.34s-0.577 0.945-0.741 1.047c-0.164 0.101-0.213 0.137-0.2 0.211 0.020 0.109 0.095 0.105 0.235 0.082 0.192-0.033 1.225-0.496 1.27-1.622 0.056-1.429-1.313-3.028-3.739-2.987-0.999 0.017-1.627 0.112-2.081 0.281-0.033-0.038-0.068-0.076-0.103-0.114-1.499-1.6-4.271-2.731-4.154-4.882 0.043-0.782 0.315-2.841 5.326-5.338 4.105-2.046 7.392-1.483 7.96-0.235 0.811 1.783-1.757 5.095-6.020 5.573-1.625 0.182-2.48-0.447-2.693-0.682-0.224-0.247-0.257-0.258-0.341-0.211-0.136 0.075-0.050 0.293 0 0.423 0.127 0.331 0.65 0.919 1.54 1.211 0.783 0.257 2.691 0.398 4.997-0.494 2.583-1 4.6-3.78 4.007-6.103zM13.384 20.425c0.193 0.716 0.172 1.384-0.027 1.989-0.022 0.067-0.047 0.133-0.073 0.199s-0.055 0.131-0.086 0.195c-0.154 0.32-0.361 0.619-0.615 0.896-0.773 0.843-1.853 1.162-2.316 0.893-0.5-0.29-0.249-1.479 0.647-2.427 0.964-1.019 2.351-1.675 2.351-1.675l-0.002-0.004c0.040-0.022 0.081-0.044 0.121-0.067z"></path>
</symbol>
<symbol id="icon-typescript" viewBox="0 0 32 32">
<path fill="#1976d2" style="fill: var(--color28, #1976d2)" d="M4 4h24v24h-24v-24z"></path>
<path fill="#fff" style="fill: var(--color3, #fff)" d="M18.327 14.667h-8.842v2.176h3.171v9.824h2.513v-9.824h3.158z"></path>
<path fill="#fff" style="fill: var(--color3, #fff)" d="M26.129 17.389c0 0-1.191-0.795-2.538-0.795s-1.831 0.64-1.831 1.324c0 1.765 4.921 1.589 4.921 5.141 0 5.473-7.503 3.045-7.503 3.045v-2.625c0 0 1.435 1.081 3.155 1.081s1.655-1.125 1.655-1.28c0-1.633-4.877-1.633-4.877-5.252 0-4.921 7.105-2.979 7.105-2.979l-0.088 2.339z"></path>
</symbol>
<symbol id="icon-vue-js" viewBox="0 0 32 32">
<path fill="#81c784" style="fill: var(--color29, #81c784)" d="M15.991 11.333l-3.502-6h-10.507l14.009 24 14.009-24h-10.507z"></path>
<path fill="#455a64" style="fill: var(--color30, #455a64)" d="M19.493 5.333l-3.502 6-3.502-6h-5.059l8.561 14.667 8.561-14.667z"></path>
</symbol>
</defs>
</svg>
